<svg fill="#000000" class="juiceico" height="800px" width="800px" version="1.1" id="Layer_1" xmlns="http://www.w3.org/2000/svg" xmlns:xlink="http://www.w3.org/1999/xlink" viewBox="0 0 511.999 511.999" xml:space="preserve">
<g>
	<g>
		<path d="M476.804,261.572c0-64.44-52.426-116.867-116.867-116.867c-2.745,0-5.478,0.112-8.201,0.302l23.546-54.942
			c4.048-9.444-1.328-20.28-11.296-22.773L96.863,0.511C84.792-2.507,73.743,8.316,76.545,20.463l32.334,140.115L39.493,368.737
			c-12.738,38.218,3.83,78.263,36.625,97.765v12.107c0,18.411,14.979,33.39,33.39,33.39h233.733c18.411,0,33.39-14.979,33.39-33.39
			v-12.107c32.69-19.442,49.401-59.432,36.624-97.765l-0.898-2.696C451.481,346.453,476.804,306.323,476.804,261.572z
			 M336.869,94.932l-21.331,49.774H139.485L115.21,39.518L336.869,94.932z M353.423,440.911
			c-6.172,2.616-10.181,8.669-10.181,15.373v22.326H109.509v-22.326c0-6.704-4.01-12.757-10.182-15.373
			c-24.324-10.307-36.429-36.796-28.156-61.616l67.067-201.2h176.276l67.066,201.2C389.853,404.116,377.748,430.605,353.423,440.911
			z M401.651,333.92l-51.742-155.229c3.312-0.396,6.659-0.595,10.028-0.595c46.029,0,83.476,37.447,83.476,83.476
			C443.414,291.886,427.157,319.24,401.651,333.92z"></path>
	</g>
</g>
<g>
	<g>
		<path d="M309.013,245.716c-6.627-6.628-17.228-6.381-23.61,0c-0.002,0.002-0.003,0.003-0.006,0.006l-70.813,70.813
			c-0.01,0.009-0.019,0.019-0.029,0.029l-70.811,70.811c-0.002,0.002-0.003,0.003-0.006,0.006c-6.52,6.52-6.52,17.09,0,23.61
			c45.671,45.674,119.597,45.678,165.274,0C354.534,365.466,354.604,291.307,309.013,245.716z M209.681,410.163
			c-10.495-2.119-20.429-6.234-29.348-12.156l29.348-29.348V410.163z M243.071,410.163v-41.504l29.348,29.348
			C263.499,403.929,253.566,408.044,243.071,410.163z M296.019,374.386l-29.338-29.338h41.443
			C306.038,355.347,302.011,365.327,296.019,374.386z M266.681,311.658l29.339-29.338c5.991,9.059,10.018,19.039,12.105,29.338
			H266.681z"></path>
	</g>
</g>
<g>
	<g>
		<circle cx="192.985" cy="228.18" r="16.695"></circle>
	</g>
</g>
<g>
	<g>
		<circle cx="159.595" cy="294.96" r="16.695"></circle>
	</g>
</g>
</svg>