<svg version="1.0" xmlns="http://www.w3.org/2000/svg" width="512.000000pt" height="512.000000pt" viewBox="0 0 512.000000 512.000000" preserveAspectRatio="xMidYMid meet">

<g transform="translate(0.000000,512.000000) scale(0.100000,-0.100000)" fill="#000000" stroke="none">
<path d="M2406 5104 c-151 -33 -275 -102 -382 -210 l-70 -71 -80 4 c-240 14
-478 -124 -583 -338 -72 -147 -71 -124 -71 -1057 0 -813 0 -834 -20 -872 -20
-38 -20 -59 -20 -960 0 -800 2 -931 16 -998 60 -295 291 -526 586 -586 116
-24 1441 -24 1556 0 296 61 526 291 586 586 14 67 16 198 16 998 0 858 -1 923
-17 953 -17 30 -18 101 -23 957 l-5 925 -28 81 c-107 318 -413 502 -729 439
l-88 -17 -37 29 c-63 50 -124 80 -223 114 -117 39 -271 48 -384 23z m267 -299
c32 -8 71 -22 87 -30 l29 -15 -48 -73 c-62 -92 -98 -185 -113 -287 l-11 -80
-63 0 c-202 0 -403 -85 -566 -238 l-37 -35 -68 50 c-99 73 -178 124 -263 172
-41 24 -76 44 -78 46 -9 8 41 85 80 122 82 80 202 111 310 79 90 -26 141 -22
183 15 20 18 43 46 52 62 25 49 112 135 168 167 101 58 226 74 338 45z m719
-165 c65 -34 104 -66 139 -117 31 -44 69 -146 69 -182 0 -11 -26 -31 -72 -56
-70 -38 -228 -141 -315 -206 l-42 -32 -53 48 c-29 26 -86 70 -127 98 l-74 49
6 79 c14 209 169 358 359 345 40 -3 83 -13 110 -26z m-730 -631 c79 -16 171
-64 230 -118 l52 -48 -90 -100 c-92 -103 -167 -197 -247 -316 l-46 -67 -49 72
c-74 110 -180 244 -263 332 l-73 79 52 47 c115 106 279 151 434 119z m-967
-147 c252 -192 466 -427 631 -698 l65 -106 -54 -127 c-30 -69 -76 -192 -102
-272 l-48 -147 -95 62 c-86 54 -102 61 -147 61 -47 0 -61 -7 -179 -83 l-128
-83 -59 38 -59 38 0 718 0 718 58 -37 c31 -20 84 -57 117 -82z m1905 -599 l0
-718 -59 -38 -59 -38 -117 76 c-64 42 -130 81 -146 87 -52 18 -97 2 -226 -82
l-125 -81 -107 69 c-125 82 -163 102 -191 102 -11 0 -20 5 -20 11 0 16 85 219
126 301 198 396 489 735 829 966 50 34 91 62 93 62 1 0 2 -323 2 -717z m-1513
-1044 c106 -70 151 -87 200 -74 16 3 84 42 151 87 l124 80 121 -81 c67 -44
134 -83 150 -87 47 -11 93 5 184 64 48 32 104 68 124 80 l36 22 122 -79 c67
-44 135 -83 152 -86 44 -10 88 1 139 35 l45 30 3 -748 c2 -540 0 -762 -9 -802
-36 -174 -174 -313 -347 -349 -74 -16 -1371 -15 -1444 0 -173 37 -311 176
-347 349 -9 40 -11 262 -9 802 l3 748 45 -30 c51 -34 95 -45 138 -35 17 3 86
42 153 85 103 67 125 77 142 68 11 -5 67 -41 124 -79z"></path>
</g>
</svg>